<svg xmlns="http://www.w3.org/2000/svg" width="151" height="20" viewBox="0 0 151 20" fill="none">
<g clip-path="url(#clip0_3304_539)">
<circle cx="8.31649" cy="5.27038" r="5.34212" fill="url(#paint0_radial_3304_539)"/>
<g opacity="0.67" filter="url(#filter0_f_3304_539)">
<path d="M19.6346 5.98851C23.2124 9.21742 31.6084 12.6413 28.3795 16.2191C25.1506 19.7968 6.69492 30.017 -0.989481 26.0666C-4.56725 22.8377 2.21591 12.4411 5.44482 8.86329C8.67372 5.28552 16.0568 2.75961 19.6346 5.98851Z" fill="url(#paint1_linear_3304_539)" fill-opacity="0.3"/>
</g>
<g filter="url(#filter1_ii_3304_539)">
<path fill-rule="evenodd" clip-rule="evenodd" d="M14.098 19.9326V19.9329H7.07293C3.57629 19.9329 0.741699 17.0983 0.741699 13.6017C0.741699 10.105 3.57629 7.27043 7.07293 7.27043H7.41984C8.64714 7.27043 9.7971 7.60149 10.7853 8.17919C12.0699 4.37315 15.6694 1.63275 19.9088 1.63275H20.3858C25.4392 1.63275 29.5358 5.72931 29.5358 10.7827C29.5358 15.836 25.4392 19.9326 20.3859 19.9326H14.098Z" fill="white"/>
</g>
<path d="M45.3203 16H47.625L49.7031 8.44531H49.75L51.8203 16H54.125L57.1172 4.72656H54.6719L52.8828 12.8047H52.8359L50.7578 4.72656H48.6875L46.6094 12.8047H46.5625L44.7812 4.72656H42.3359L45.3203 16ZM61.0703 16.1719C63.4609 16.1719 64.6172 14.7578 64.875 13.5234L64.8984 13.4375H62.8047L62.7891 13.4844C62.625 13.9531 62.0547 14.4688 61.1172 14.4688C59.9531 14.4688 59.2266 13.6875 59.2031 12.3516H64.9688V11.6484C64.9688 9.11719 63.4297 7.45312 60.9766 7.45312C58.5234 7.45312 56.9531 9.15625 56.9531 11.8203V11.8281C56.9531 14.5078 58.5078 16.1719 61.0703 16.1719ZM61.0156 9.15625C61.9609 9.15625 62.6406 9.75781 62.7812 10.9141H59.2266C59.375 9.78125 60.0781 9.15625 61.0156 9.15625ZM68.6406 16.1328C69.7422 16.1328 70.6328 15.6094 71.1094 14.75H71.1562V16H73.4375V10.2578C73.4375 8.57031 72.0391 7.45312 69.875 7.45312C67.6641 7.45312 66.3359 8.5625 66.2109 10.1094L66.2031 10.2031H68.2891L68.3047 10.1328C68.4141 9.59375 68.9297 9.19531 69.7812 9.19531C70.6719 9.19531 71.1562 9.65625 71.1562 10.3984V10.9141L69.0859 11.0391C67.0078 11.1719 65.8281 12.0625 65.8281 13.5859V13.6016C65.8281 15.0781 66.9609 16.1328 68.6406 16.1328ZM68.0859 13.4844V13.4688C68.0859 12.875 68.5469 12.5 69.4297 12.4453L71.1562 12.3359V12.9375C71.1562 13.8125 70.4062 14.4688 69.3828 14.4688C68.5938 14.4688 68.0859 14.1016 68.0859 13.4844ZM78.2422 16.1719C78.7188 16.1719 79.0859 16.125 79.3438 16.0859V14.4141C79.2031 14.4297 79.0547 14.4531 78.8516 14.4531C78.1641 14.4531 77.8125 14.1875 77.8125 13.4062V9.34375H79.3438V7.625H77.8125V5.57812H75.5078V7.625H74.3438V9.34375H75.5078V13.6562C75.5078 15.4531 76.3828 16.1719 78.2422 16.1719ZM80.6562 16H82.9375V11.2031C82.9375 10.1094 83.5859 9.34375 84.5938 9.34375C85.6328 9.34375 86.2109 10.0391 86.2109 11.2109V16H88.4922V10.7422C88.4922 8.71875 87.3672 7.45312 85.5547 7.45312C84.2969 7.45312 83.4141 8.03125 82.9844 9.07031H82.9375V4.72656H80.6562V16ZM93.7734 16.1719C96.1641 16.1719 97.3203 14.7578 97.5781 13.5234L97.6016 13.4375H95.5078L95.4922 13.4844C95.3281 13.9531 94.7578 14.4688 93.8203 14.4688C92.6562 14.4688 91.9297 13.6875 91.9062 12.3516H97.6719V11.6484C97.6719 9.11719 96.1328 7.45312 93.6797 7.45312C91.2266 7.45312 89.6562 9.15625 89.6562 11.8203V11.8281C89.6562 14.5078 91.2109 16.1719 93.7734 16.1719ZM93.7188 9.15625C94.6641 9.15625 95.3438 9.75781 95.4844 10.9141H91.9297C92.0781 9.78125 92.7812 9.15625 93.7188 9.15625ZM98.8516 16H101.133V11.3125C101.133 10.0938 101.789 9.42188 102.914 9.42188C103.242 9.42188 103.555 9.46875 103.742 9.54688V7.53906C103.57 7.49219 103.336 7.45312 103.086 7.45312C102.109 7.45312 101.43 8.05469 101.18 9.08594H101.133V7.625H98.8516V16ZM109.891 16.1953C112.617 16.1953 114.594 14.4844 114.812 12.0859L114.82 12H112.523L112.508 12.0781C112.203 13.4141 111.25 14.1953 109.891 14.1953C108.086 14.1953 106.93 12.7266 106.93 10.3516V10.3438C106.93 7.98438 108.086 6.53125 109.891 6.53125C111.297 6.53125 112.219 7.34375 112.484 8.58594L112.516 8.71875H114.812L114.805 8.64844C114.586 6.25781 112.625 4.53125 109.891 4.53125C106.602 4.53125 104.523 6.71875 104.523 10.3516V10.3594C104.523 13.9922 106.594 16.1953 109.891 16.1953ZM116.141 16H118.422V11.2031C118.422 10.1094 119.07 9.34375 120.078 9.34375C121.117 9.34375 121.695 10.0391 121.695 11.2109V16H123.977V10.7422C123.977 8.71875 122.852 7.45312 121.039 7.45312C119.781 7.45312 118.898 8.03125 118.469 9.07031H118.422V4.72656H116.141V16ZM129.258 16.1719C131.648 16.1719 132.805 14.7578 133.062 13.5234L133.086 13.4375H130.992L130.977 13.4844C130.812 13.9531 130.242 14.4688 129.305 14.4688C128.141 14.4688 127.414 13.6875 127.391 12.3516H133.156V11.6484C133.156 9.11719 131.617 7.45312 129.164 7.45312C126.711 7.45312 125.141 9.15625 125.141 11.8203V11.8281C125.141 14.5078 126.695 16.1719 129.258 16.1719ZM129.203 9.15625C130.148 9.15625 130.828 9.75781 130.969 10.9141H127.414C127.562 9.78125 128.266 9.15625 129.203 9.15625ZM138.164 16.1719C140.398 16.1719 141.844 14.7812 141.953 12.9531V12.9062H139.828L139.82 12.9766C139.664 13.8203 139.094 14.3828 138.18 14.3828C137.055 14.3828 136.352 13.4531 136.352 11.8125V11.8047C136.352 10.2031 137.055 9.24219 138.172 9.24219C139.117 9.24219 139.672 9.85156 139.812 10.6484L139.828 10.7188H141.945V10.6641C141.859 8.85156 140.414 7.45312 138.141 7.45312C135.633 7.45312 134.031 9.11719 134.031 11.7969V11.8047C134.031 14.5078 135.609 16.1719 138.164 16.1719ZM143.133 16H145.414V13.2266L146 12.5781L148.398 16H151.031L147.711 11.2266L150.875 7.625H148.289L145.461 10.9766H145.414V4.72656H143.133V16Z" fill="white"/>
</g>
<defs>
<filter id="filter0_f_3304_539" x="-39.881" y="-33.3745" width="106.862" height="98.2113" filterUnits="userSpaceOnUse" color-interpolation-filters="sRGB">
<feFlood flood-opacity="0" result="BackgroundImageFix"/>
<feBlend mode="normal" in="SourceGraphic" in2="BackgroundImageFix" result="shape"/>
<feGaussianBlur stdDeviation="18.9384" result="effect1_foregroundBlur_3304_539"/>
</filter>
<filter id="filter1_ii_3304_539" x="-14.4091" y="-10.9929" width="50.6786" height="40.1846" filterUnits="userSpaceOnUse" color-interpolation-filters="sRGB">
<feFlood flood-opacity="0" result="BackgroundImageFix"/>
<feBlend mode="normal" in="SourceGraphic" in2="BackgroundImageFix" result="shape"/>
<feColorMatrix in="SourceAlpha" type="matrix" values="0 0 0 0 0 0 0 0 0 0 0 0 0 0 0 0 0 0 127 0" result="hardAlpha"/>
<feOffset dx="6.73367" dy="-12.6256"/>
<feGaussianBlur stdDeviation="12.6256"/>
<feComposite in2="hardAlpha" operator="arithmetic" k2="-1" k3="1"/>
<feColorMatrix type="matrix" values="0 0 0 0 0 0 0 0 0 0 0 0 0 0 0 0 0 0 0.2 0"/>
<feBlend mode="normal" in2="shape" result="effect1_innerShadow_3304_539"/>
<feColorMatrix in="SourceAlpha" type="matrix" values="0 0 0 0 0 0 0 0 0 0 0 0 0 0 0 0 0 0 127 0" result="hardAlpha"/>
<feOffset dx="-15.1508" dy="9.2588"/>
<feGaussianBlur stdDeviation="12.6256"/>
<feComposite in2="hardAlpha" operator="arithmetic" k2="-1" k3="1"/>
<feColorMatrix type="matrix" values="0 0 0 0 1 0 0 0 0 1 0 0 0 0 1 0 0 0 1 0"/>
<feBlend mode="normal" in2="effect1_innerShadow_3304_539" result="effect2_innerShadow_3304_539"/>
</filter>
<radialGradient id="paint0_radial_3304_539" cx="0" cy="0" r="1" gradientUnits="userSpaceOnUse" gradientTransform="translate(10.442 2.35844) rotate(132.136) scale(11.1308)">
<stop stop-color="#FFF72C"/>
<stop offset="1" stop-color="#DF7800"/>
</radialGradient>
<linearGradient id="paint1_linear_3304_539" x1="2.81013" y1="27.6486" x2="23.5919" y2="4.32603" gradientUnits="userSpaceOnUse">
<stop stop-color="#254659"/>
<stop offset="1" stop-color="#023553"/>
</linearGradient>
<clipPath id="clip0_3304_539">
<rect width="151" height="20" fill="white"/>
</clipPath>
</defs>
</svg>